<svg aria-roledescription="flowchart-v2" role="graphics-document document" viewBox="-8 -8 1173.8499755859375 1354.09375" style="max-width: 1173.8499755859375px;" xmlns:xlink="http://www.w3.org/1999/xlink" xmlns="http://www.w3.org/2000/svg" width="100%" id="mermaid-1774784029162"><style>#mermaid-1774784029162{font-family:"trebuchet ms",verdana,arial,sans-serif;font-size:16px;fill:#333;}#mermaid-1774784029162 .error-icon{fill:#552222;}#mermaid-1774784029162 .error-text{fill:#552222;stroke:#552222;}#mermaid-1774784029162 .edge-thickness-normal{stroke-width:2px;}#mermaid-1774784029162 .edge-thickness-thick{stroke-width:3.5px;}#mermaid-1774784029162 .edge-pattern-solid{stroke-dasharray:0;}#mermaid-1774784029162 .edge-pattern-dashed{stroke-dasharray:3;}#mermaid-1774784029162 .edge-pattern-dotted{stroke-dasharray:2;}#mermaid-1774784029162 .marker{fill:#333333;stroke:#333333;}#mermaid-1774784029162 .marker.cross{stroke:#333333;}#mermaid-1774784029162 svg{font-family:"trebuchet ms",verdana,arial,sans-serif;font-size:16px;}#mermaid-1774784029162 .label{font-family:"trebuchet ms",verdana,arial,sans-serif;color:#333;}#mermaid-1774784029162 .cluster-label text{fill:#333;}#mermaid-1774784029162 .cluster-label span,#mermaid-1774784029162 p{color:#333;}#mermaid-1774784029162 .label text,#mermaid-1774784029162 span,#mermaid-1774784029162 p{fill:#333;color:#333;}#mermaid-1774784029162 .node rect,#mermaid-1774784029162 .node circle,#mermaid-1774784029162 .node ellipse,#mermaid-1774784029162 .node polygon,#mermaid-1774784029162 .node path{fill:#ECECFF;stroke:#9370DB;stroke-width:1px;}#mermaid-1774784029162 .flowchart-label text{text-anchor:middle;}#mermaid-1774784029162 .node .katex path{fill:#000;stroke:#000;stroke-width:1px;}#mermaid-1774784029162 .node .label{text-align:center;}#mermaid-1774784029162 .node.clickable{cursor:pointer;}#mermaid-1774784029162 .arrowheadPath{fill:#333333;}#mermaid-1774784029162 .edgePath .path{stroke:#333333;stroke-width:2.0px;}#mermaid-1774784029162 .flowchart-link{stroke:#333333;fill:none;}#mermaid-1774784029162 .edgeLabel{background-color:#e8e8e8;text-align:center;}#mermaid-1774784029162 .edgeLabel rect{opacity:0.5;background-color:#e8e8e8;fill:#e8e8e8;}#mermaid-1774784029162 .labelBkg{background-color:rgba(232, 232, 232, 0.5);}#mermaid-1774784029162 .cluster rect{fill:#ffffde;stroke:#aaaa33;stroke-width:1px;}#mermaid-1774784029162 .cluster text{fill:#333;}#mermaid-1774784029162 .cluster span,#mermaid-1774784029162 p{color:#333;}#mermaid-1774784029162 div.mermaidTooltip{position:absolute;text-align:center;max-width:200px;padding:2px;font-family:"trebuchet ms",verdana,arial,sans-serif;font-size:12px;background:hsl(80, 100%, 96.2745098039%);border:1px solid #aaaa33;border-radius:2px;pointer-events:none;z-index:100;}#mermaid-1774784029162 .flowchartTitleText{text-anchor:middle;font-size:18px;fill:#333;}#mermaid-1774784029162 :root{--mermaid-font-family:"trebuchet ms",verdana,arial,sans-serif;}#mermaid-1774784029162 .setup&gt;*{fill:#e1f5fe!important;stroke:#03a9f4!important;stroke-width:2px!important;}#mermaid-1774784029162 .setup span{fill:#e1f5fe!important;stroke:#03a9f4!important;stroke-width:2px!important;}#mermaid-1774784029162 .action&gt;*{fill:#e8f5e9!important;stroke:#4caf50!important;stroke-width:2px!important;}#mermaid-1774784029162 .action span{fill:#e8f5e9!important;stroke:#4caf50!important;stroke-width:2px!important;}#mermaid-1774784029162 .decision&gt;*{fill:#fff3e0!important;stroke:#ff9800!important;stroke-width:2px!important;}#mermaid-1774784029162 .decision span{fill:#fff3e0!important;stroke:#ff9800!important;stroke-width:2px!important;}#mermaid-1774784029162 .stop&gt;*{fill:#ffebee!important;stroke:#f44336!important;stroke-width:2px!important;}#mermaid-1774784029162 .stop span{fill:#ffebee!important;stroke:#f44336!important;stroke-width:2px!important;}</style><g><marker orient="auto" markerHeight="12" markerWidth="12" markerUnits="userSpaceOnUse" refY="5" refX="6" viewBox="0 0 10 10" class="marker flowchart" id="mermaid-1774784029162_flowchart-pointEnd"><path style="stroke-width: 1; stroke-dasharray: 1, 0;" class="arrowMarkerPath" d="M 0 0 L 10 5 L 0 10 z"/></marker><marker orient="auto" markerHeight="12" markerWidth="12" markerUnits="userSpaceOnUse" refY="5" refX="4.5" viewBox="0 0 10 10" class="marker flowchart" id="mermaid-1774784029162_flowchart-pointStart"><path style="stroke-width: 1; stroke-dasharray: 1, 0;" class="arrowMarkerPath" d="M 0 5 L 10 10 L 10 0 z"/></marker><marker orient="auto" markerHeight="11" markerWidth="11" markerUnits="userSpaceOnUse" refY="5" refX="11" viewBox="0 0 10 10" class="marker flowchart" id="mermaid-1774784029162_flowchart-circleEnd"><circle style="stroke-width: 1; stroke-dasharray: 1, 0;" class="arrowMarkerPath" r="5" cy="5" cx="5"/></marker><marker orient="auto" markerHeight="11" markerWidth="11" markerUnits="userSpaceOnUse" refY="5" refX="-1" viewBox="0 0 10 10" class="marker flowchart" id="mermaid-1774784029162_flowchart-circleStart"><circle style="stroke-width: 1; stroke-dasharray: 1, 0;" class="arrowMarkerPath" r="5" cy="5" cx="5"/></marker><marker orient="auto" markerHeight="11" markerWidth="11" markerUnits="userSpaceOnUse" refY="5.2" refX="12" viewBox="0 0 11 11" class="marker cross flowchart" id="mermaid-1774784029162_flowchart-crossEnd"><path style="stroke-width: 2; stroke-dasharray: 1, 0;" class="arrowMarkerPath" d="M 1,1 l 9,9 M 10,1 l -9,9"/></marker><marker orient="auto" markerHeight="11" markerWidth="11" markerUnits="userSpaceOnUse" refY="5.2" refX="-1" viewBox="0 0 11 11" class="marker cross flowchart" id="mermaid-1774784029162_flowchart-crossStart"><path style="stroke-width: 2; stroke-dasharray: 1, 0;" class="arrowMarkerPath" d="M 1,1 l 9,9 M 10,1 l -9,9"/></marker><g class="root"><g class="clusters"/><g class="edgePaths"><path marker-end="url(#mermaid-1774784029162_flowchart-pointEnd)" style="fill:none;" class="edge-thickness-normal edge-pattern-solid flowchart-link LS-Start LE-Setup" id="L-Start-Setup-0" d="M391.115,33.5L391.115,37.667C391.115,41.833,391.115,50.167,391.115,57.617C391.115,65.067,391.115,71.633,391.115,74.917L391.115,78.2"/><path marker-end="url(#mermaid-1774784029162_flowchart-pointEnd)" style="fill:none;" class="edge-thickness-normal edge-pattern-solid flowchart-link LS-Setup LE-InitEscape" id="L-Setup-InitEscape-0" d="M391.115,117L391.115,121.167C391.115,125.333,391.115,133.667,391.115,141.117C391.115,148.567,391.115,155.133,391.115,158.417L391.115,161.7"/><path marker-end="url(#mermaid-1774784029162_flowchart-pointEnd)" style="fill:none;" class="edge-thickness-normal edge-pattern-solid flowchart-link LS-InitEscape LE-Loop" id="L-InitEscape-Loop-0" d="M391.115,200.5L391.115,204.667C391.115,208.833,391.115,217.167,391.115,224.617C391.115,232.067,391.115,238.633,391.115,241.917L391.115,245.2"/><path marker-end="url(#mermaid-1774784029162_flowchart-pointEnd)" style="fill:none;" class="edge-thickness-normal edge-pattern-solid flowchart-link LS-Loop LE-Radar" id="L-Loop-Radar-0" d="M331.393,339.433L304.849,350.284C278.305,361.135,225.217,382.837,198.673,396.971C172.129,411.106,172.129,417.672,172.129,420.956L172.129,424.239"/><path marker-end="url(#mermaid-1774784029162_flowchart-pointEnd)" style="fill:none;" class="edge-thickness-normal edge-pattern-solid flowchart-link LS-Radar LE-CheckSafe" id="L-Radar-CheckSafe-0" d="M172.129,481.539L172.129,485.706C172.129,489.872,172.129,498.206,172.195,505.739C172.261,513.273,172.393,520.006,172.459,523.373L172.525,526.74"/><path marker-end="url(#mermaid-1774784029162_flowchart-pointEnd)" style="fill:none;" class="edge-thickness-normal edge-pattern-solid flowchart-link LS-CheckSafe LE-SpeedTarget" id="L-CheckSafe-SpeedTarget-0" d="M172.629,810.094L172.546,815.719C172.462,821.344,172.296,832.594,172.212,843.044C172.129,853.494,172.129,863.144,172.129,867.969L172.129,872.794"/><path marker-end="url(#mermaid-1774784029162_flowchart-pointEnd)" style="fill:none;" class="edge-thickness-normal edge-pattern-solid flowchart-link LS-SpeedTarget LE-FlexibleStart" id="L-SpeedTarget-FlexibleStart-0" d="M172.129,930.094L172.129,934.26C172.129,938.427,172.129,946.76,172.129,954.21C172.129,961.66,172.129,968.227,172.129,971.51L172.129,974.794"/><path marker-end="url(#mermaid-1774784029162_flowchart-pointEnd)" style="fill:none;" class="edge-thickness-normal edge-pattern-solid flowchart-link LS-FlexibleStart LE-SideAvoid" id="L-FlexibleStart-SideAvoid-0" d="M172.129,1032.094L172.129,1036.26C172.129,1040.427,172.129,1048.76,172.129,1056.21C172.129,1063.66,172.129,1070.227,172.129,1073.51L172.129,1076.794"/><path marker-end="url(#mermaid-1774784029162_flowchart-pointEnd)" style="fill:none;" class="edge-thickness-normal edge-pattern-solid flowchart-link LS-SideAvoid LE-MoveStraight" id="L-SideAvoid-MoveStraight-0" d="M172.129,1134.094L172.129,1138.26C172.129,1142.427,172.129,1150.76,179.798,1158.704C187.466,1166.647,202.804,1174.199,210.472,1177.976L218.141,1181.752"/><path marker-end="url(#mermaid-1774784029162_flowchart-pointEnd)" style="fill:none;" class="edge-thickness-normal edge-pattern-solid flowchart-link LS-MoveStraight LE-Loop" id="L-MoveStraight-Loop-0" d="M334.536,1184.094L343.966,1179.927C353.396,1175.76,372.255,1167.427,381.685,1154.76C391.115,1142.094,391.115,1125.094,391.115,1108.094C391.115,1091.094,391.115,1074.094,391.115,1057.094C391.115,1040.094,391.115,1023.094,391.115,1006.094C391.115,989.094,391.115,972.094,391.115,955.094C391.115,938.094,391.115,921.094,391.115,902.552C391.115,884.01,391.115,863.927,391.115,825.006C391.115,786.085,391.115,728.326,391.115,672.108C391.115,615.891,391.115,561.215,391.115,525.377C391.115,489.539,391.115,472.539,391.115,455.539C391.115,438.539,391.115,421.539,391.115,409.756C391.115,397.972,391.115,391.406,391.115,388.122L391.115,384.839"/><path marker-end="url(#mermaid-1774784029162_flowchart-pointEnd)" style="fill:none;" class="edge-thickness-normal edge-pattern-solid flowchart-link LS-CheckSafe LE-StopCar" id="L-CheckSafe-StopCar-0" d="M277.726,704.996L349.58,728.138C421.434,751.279,565.142,797.561,636.996,827.069C708.85,856.577,708.85,869.31,708.85,875.677L708.85,882.044"/><path marker-end="url(#mermaid-1774784029162_flowchart-pointEnd)" style="fill:none;" class="edge-thickness-normal edge-pattern-solid flowchart-link LS-StopCar LE-Scan180" id="L-StopCar-Scan180-0" d="M708.85,920.844L708.85,926.552C708.85,932.26,708.85,943.677,708.85,952.669C708.85,961.66,708.85,968.227,708.85,971.51L708.85,974.794"/><path marker-end="url(#mermaid-1774784029162_flowchart-pointEnd)" style="fill:none;" class="edge-thickness-normal edge-pattern-solid flowchart-link LS-Scan180 LE-BestPath" id="L-Scan180-BestPath-0" d="M708.85,1032.094L708.85,1036.26C708.85,1040.427,708.85,1048.76,708.85,1056.21C708.85,1063.66,708.85,1070.227,708.85,1073.51L708.85,1076.794"/><path marker-end="url(#mermaid-1774784029162_flowchart-pointEnd)" style="fill:none;" class="edge-thickness-normal edge-pattern-solid flowchart-link LS-BestPath LE-TurnTarget" id="L-BestPath-TurnTarget-0" d="M708.85,1134.094L708.85,1138.26C708.85,1142.427,708.85,1150.76,708.85,1159.752C708.85,1168.744,708.85,1178.394,708.85,1183.219L708.85,1188.044"/><path marker-end="url(#mermaid-1774784029162_flowchart-pointEnd)" style="fill:none;stroke-width:2px;stroke-dasharray:3;" class="edge-thickness-normal edge-pattern-dotted flowchart-link LS-TurnTarget LE-TurnTarget" id="L-TurnTarget-TurnTarget-0" d="M893.662,1198.953L909.173,1198.019C924.683,1197.084,955.704,1195.214,975.092,1194.279C994.48,1193.344,1002.235,1193.344,1009.99,1196.135C1017.745,1198.927,1025.501,1204.51,1025.501,1210.094C1025.501,1215.677,1017.745,1221.26,1009.99,1224.052C1002.235,1226.844,994.48,1226.844,975.974,1225.962C957.467,1225.08,928.21,1223.317,913.581,1222.435L898.953,1221.553"/><path marker-end="url(#mermaid-1774784029162_flowchart-pointEnd)" style="fill:none;" class="edge-thickness-normal edge-pattern-solid flowchart-link LS-TurnTarget LE-ResetStatus" id="L-TurnTarget-ResetStatus-0" d="M708.85,1226.844L708.85,1232.552C708.85,1238.26,708.85,1249.677,727.127,1259.537C745.404,1269.398,781.959,1277.702,800.236,1281.854L818.513,1286.006"/><path marker-end="url(#mermaid-1774784029162_flowchart-pointEnd)" style="fill:none;" class="edge-thickness-normal edge-pattern-solid flowchart-link LS-ResetStatus LE-Loop" id="L-ResetStatus-Loop-0" d="M1043.018,1287.18L1062.156,1282.833C1081.295,1278.485,1119.572,1269.789,1138.711,1256.942C1157.85,1244.094,1157.85,1227.094,1157.85,1210.094C1157.85,1193.094,1157.85,1176.094,1157.85,1159.094C1157.85,1142.094,1157.85,1125.094,1157.85,1108.094C1157.85,1091.094,1157.85,1074.094,1157.85,1057.094C1157.85,1040.094,1157.85,1023.094,1157.85,1006.094C1157.85,989.094,1157.85,972.094,1157.85,955.094C1157.85,938.094,1157.85,921.094,1157.85,902.552C1157.85,884.01,1157.85,863.927,1157.85,825.006C1157.85,786.085,1157.85,728.326,1157.85,672.108C1157.85,615.891,1157.85,561.215,1157.85,525.377C1157.85,489.539,1157.85,472.539,1157.85,455.539C1157.85,438.539,1157.85,421.539,1041.619,399.469C925.388,377.398,692.926,350.257,576.695,336.687L460.464,323.116"/></g><g class="edgeLabels"><g class="edgeLabel"><g transform="translate(0, 0)" class="label"><foreignObject height="0" width="0"><div style="display: inline-block; white-space: nowrap;" xmlns="http://www.w3.org/1999/xhtml"><span class="edgeLabel"></span></div></foreignObject></g></g><g class="edgeLabel"><g transform="translate(0, 0)" class="label"><foreignObject height="0" width="0"><div style="display: inline-block; white-space: nowrap;" xmlns="http://www.w3.org/1999/xhtml"><span class="edgeLabel"></span></div></foreignObject></g></g><g class="edgeLabel"><g transform="translate(0, 0)" class="label"><foreignObject height="0" width="0"><div style="display: inline-block; white-space: nowrap;" xmlns="http://www.w3.org/1999/xhtml"><span class="edgeLabel"></span></div></foreignObject></g></g><g class="edgeLabel"><g transform="translate(0, 0)" class="label"><foreignObject height="0" width="0"><div style="display: inline-block; white-space: nowrap;" xmlns="http://www.w3.org/1999/xhtml"><span class="edgeLabel"></span></div></foreignObject></g></g><g class="edgeLabel"><g transform="translate(0, 0)" class="label"><foreignObject height="0" width="0"><div style="display: inline-block; white-space: nowrap;" xmlns="http://www.w3.org/1999/xhtml"><span class="edgeLabel"></span></div></foreignObject></g></g><g transform="translate(172.12890625, 843.84375)" class="edgeLabel"><g transform="translate(-60.54296875, -9.25)" class="label"><foreignObject height="18.5" width="121.0859375"><div style="display: inline-block; white-space: nowrap;" xmlns="http://www.w3.org/1999/xhtml"><span class="edgeLabel">Yes (Path is safe)</span></div></foreignObject></g></g><g class="edgeLabel"><g transform="translate(0, 0)" class="label"><foreignObject height="0" width="0"><div style="display: inline-block; white-space: nowrap;" xmlns="http://www.w3.org/1999/xhtml"><span class="edgeLabel"></span></div></foreignObject></g></g><g class="edgeLabel"><g transform="translate(0, 0)" class="label"><foreignObject height="0" width="0"><div style="display: inline-block; white-space: nowrap;" xmlns="http://www.w3.org/1999/xhtml"><span class="edgeLabel"></span></div></foreignObject></g></g><g class="edgeLabel"><g transform="translate(0, 0)" class="label"><foreignObject height="0" width="0"><div style="display: inline-block; white-space: nowrap;" xmlns="http://www.w3.org/1999/xhtml"><span class="edgeLabel"></span></div></foreignObject></g></g><g class="edgeLabel"><g transform="translate(0, 0)" class="label"><foreignObject height="0" width="0"><div style="display: inline-block; white-space: nowrap;" xmlns="http://www.w3.org/1999/xhtml"><span class="edgeLabel"></span></div></foreignObject></g></g><g transform="translate(708.849609375, 843.84375)" class="edgeLabel"><g transform="translate(-82.6875, -9.25)" class="label"><foreignObject height="18.5" width="165.375"><div style="display: inline-block; white-space: nowrap;" xmlns="http://www.w3.org/1999/xhtml"><span class="edgeLabel">No (Baseline triggered)</span></div></foreignObject></g></g><g class="edgeLabel"><g transform="translate(0, 0)" class="label"><foreignObject height="0" width="0"><div style="display: inline-block; white-space: nowrap;" xmlns="http://www.w3.org/1999/xhtml"><span class="edgeLabel"></span></div></foreignObject></g></g><g class="edgeLabel"><g transform="translate(0, 0)" class="label"><foreignObject height="0" width="0"><div style="display: inline-block; white-space: nowrap;" xmlns="http://www.w3.org/1999/xhtml"><span class="edgeLabel"></span></div></foreignObject></g></g><g class="edgeLabel"><g transform="translate(0, 0)" class="label"><foreignObject height="0" width="0"><div style="display: inline-block; white-space: nowrap;" xmlns="http://www.w3.org/1999/xhtml"><span class="edgeLabel"></span></div></foreignObject></g></g><g transform="translate(1033.255859375, 1210.09375)" class="edgeLabel"><g transform="translate(-104.59375, -18.5)" class="label"><foreignObject height="37" width="209.1875"><div style="display: inline-block; white-space: nowrap;" xmlns="http://www.w3.org/1999/xhtml"><span class="edgeLabel">Includes 2s timeout check; <br />triggers brief reverse if stuck</span></div></foreignObject></g></g><g class="edgeLabel"><g transform="translate(0, 0)" class="label"><foreignObject height="0" width="0"><div style="display: inline-block; white-space: nowrap;" xmlns="http://www.w3.org/1999/xhtml"><span class="edgeLabel"></span></div></foreignObject></g></g><g class="edgeLabel"><g transform="translate(0, 0)" class="label"><foreignObject height="0" width="0"><div style="display: inline-block; white-space: nowrap;" xmlns="http://www.w3.org/1999/xhtml"><span class="edgeLabel"></span></div></foreignObject></g></g></g><g class="nodes"><g transform="translate(391.115234375, 16.75)" data-id="Start" data-node="true" id="flowchart-Start-0" class="node default default flowchart-label"><rect height="33.5" width="202.390625" y="-16.75" x="-101.1953125" ry="16.75" rx="16.75" style=""/><g transform="translate(-89.5078125, -9.25)" style="" class="label"><rect/><foreignObject height="18.5" width="179.015625"><div style="display: inline-block; white-space: nowrap;" xmlns="http://www.w3.org/1999/xhtml"><span class="nodeLabel">System Power-on / Reset</span></div></foreignObject></g></g><g transform="translate(391.115234375, 100.25)" data-id="Setup" data-node="true" id="flowchart-Setup-1" class="node default setup flowchart-label"><rect height="33.5" width="250.78125" y="-16.75" x="-125.390625" ry="0" rx="0" style="" class="basic label-container"/><g transform="translate(-117.890625, -9.25)" style="" class="label"><rect/><foreignObject height="18.5" width="235.78125"><div style="display: inline-block; white-space: nowrap;" xmlns="http://www.w3.org/1999/xhtml"><span class="nodeLabel">Setup: Initialize hardware &amp; pins</span></div></foreignObject></g></g><g transform="translate(391.115234375, 183.75)" data-id="InitEscape" data-node="true" id="flowchart-InitEscape-3" class="node default setup flowchart-label"><rect height="33.5" width="424.2265625" y="-16.75" x="-212.11328125" ry="0" rx="0" style="" class="basic label-container"/><g transform="translate(-204.61328125, -9.25)" style="" class="label"><rect/><foreignObject height="18.5" width="409.2265625"><div style="display: inline-block; white-space: nowrap;" xmlns="http://www.w3.org/1999/xhtml"><span class="nodeLabel">Initial Pathfinding: Go straight until an open gap is found</span></div></foreignObject></g></g><g transform="translate(391.115234375, 315.01953125)" data-id="Loop" data-node="true" id="flowchart-Loop-5" class="node default flowchart-label"><circle height="33.5" width="129.0390625" r="64.51953125" ry="0" rx="0" style=""/><g transform="translate(-57.01953125, -9.25)" style="" class="label"><rect/><foreignObject height="18.5" width="114.0390625"><div style="display: inline-block; white-space: nowrap;" xmlns="http://www.w3.org/1999/xhtml"><span class="nodeLabel">Enter main loop</span></div></foreignObject></g></g><g transform="translate(172.12890625, 455.5390625)" data-id="Radar" data-node="true" id="flowchart-Radar-7" class="node default action flowchart-label"><rect height="52" width="289.2578125" y="-26" x="-144.62890625" ry="0" rx="0" style="" class="basic label-container"/><g transform="translate(-137.12890625, -18.5)" style="" class="label"><rect/><foreignObject height="37" width="274.2578125"><div style="display: inline-block; white-space: nowrap;" xmlns="http://www.w3.org/1999/xhtml"><span class="nodeLabel">updateRadarTask: <br />Radar cyclic ranging at 145°, 90°, 35°</span></div></foreignObject></g></g><g transform="translate(172.12890625, 670.56640625)" data-id="CheckSafe" data-node="true" id="flowchart-CheckSafe-9" class="node default decision flowchart-label"><polygon style="" transform="translate(-139.02734375,139.02734375)" class="label-container" points="139.02734375,0 278.0546875,-139.02734375 139.02734375,-278.0546875 0,-139.02734375"/><g transform="translate(-105.52734375, -18.5)" style="" class="label"><rect/><foreignObject height="37" width="211.0546875"><div style="display: inline-block; white-space: nowrap;" xmlns="http://www.w3.org/1999/xhtml"><span class="nodeLabel">Front Safe? <br /> frontDist &gt; SafeDistanceFront</span></div></foreignObject></g></g><g transform="translate(172.12890625, 904.09375)" data-id="SpeedTarget" data-node="true" id="flowchart-SpeedTarget-11" class="node default action flowchart-label"><rect height="52" width="178.0234375" y="-26" x="-89.01171875" ry="0" rx="0" style="" class="basic label-container"/><g transform="translate(-81.51171875, -18.5)" style="" class="label"><rect/><foreignObject height="37" width="163.0234375"><div style="display: inline-block; white-space: nowrap;" xmlns="http://www.w3.org/1999/xhtml"><span class="nodeLabel">Calculate target speed <br />(ACC PID control)</span></div></foreignObject></g></g><g transform="translate(172.12890625, 1006.09375)" data-id="FlexibleStart" data-node="true" id="flowchart-FlexibleStart-13" class="node default action flowchart-label"><rect height="52" width="344.2578125" y="-26" x="-172.12890625" ry="0" rx="0" style="" class="basic label-container"/><g transform="translate(-164.62890625, -18.5)" style="" class="label"><rect/><foreignObject height="37" width="329.2578125"><div style="display: inline-block; white-space: nowrap;" xmlns="http://www.w3.org/1999/xhtml"><span class="nodeLabel">Flexible Start: <br />Limit PWM increment to prevent sudden jerks</span></div></foreignObject></g></g><g transform="translate(172.12890625, 1108.09375)" data-id="SideAvoid" data-node="true" id="flowchart-SideAvoid-15" class="node default action flowchart-label"><rect height="52" width="289.6953125" y="-26" x="-144.84765625" ry="0" rx="0" style="" class="basic label-container"/><g transform="translate(-137.34765625, -18.5)" style="" class="label"><rect/><foreignObject height="37" width="274.6953125"><div style="display: inline-block; white-space: nowrap;" xmlns="http://www.w3.org/1999/xhtml"><span class="nodeLabel">Smooth Avoidance: <br />Calculate side collision avoidance yaw</span></div></foreignObject></g></g><g transform="translate(275.693359375, 1210.09375)" data-id="MoveStraight" data-node="true" id="flowchart-MoveStraight-17" class="node default action flowchart-label"><rect height="52" width="396.6875" y="-26" x="-198.34375" ry="0" rx="0" style="" class="basic label-container"/><g transform="translate(-190.84375, -18.5)" style="" class="label"><rect/><foreignObject height="37" width="381.6875"><div style="display: inline-block; white-space: nowrap;" xmlns="http://www.w3.org/1999/xhtml"><span class="nodeLabel">moveStraightPID: <br />Straight movement with MPU6050 heading correction</span></div></foreignObject></g></g><g transform="translate(708.849609375, 904.09375)" data-id="StopCar" data-node="true" id="flowchart-StopCar-21" class="node default stop flowchart-label"><rect height="33.5" width="334.625" y="-16.75" x="-167.3125" ry="0" rx="0" style="" class="basic label-container"/><g transform="translate(-159.8125, -9.25)" style="" class="label"><rect/><foreignObject height="18.5" width="319.625"><div style="display: inline-block; white-space: nowrap;" xmlns="http://www.w3.org/1999/xhtml"><span class="nodeLabel">stopCar: Emergency brake, eliminate inertia</span></div></foreignObject></g></g><g transform="translate(708.849609375, 1006.09375)" data-id="Scan180" data-node="true" id="flowchart-Scan180-23" class="node default action flowchart-label"><rect height="52" width="306.578125" y="-26" x="-153.2890625" ry="0" rx="0" style="" class="basic label-container"/><g transform="translate(-145.7890625, -18.5)" style="" class="label"><rect/><foreignObject height="37" width="291.578125"><div style="display: inline-block; white-space: nowrap;" xmlns="http://www.w3.org/1999/xhtml"><span class="nodeLabel">Panoramic Scan: <br />Radar ranging from 0° to 180° every 30°</span></div></foreignObject></g></g><g transform="translate(708.849609375, 1108.09375)" data-id="BestPath" data-node="true" id="flowchart-BestPath-25" class="node default action flowchart-label"><rect height="52" width="317.6015625" y="-26" x="-158.80078125" ry="0" rx="0" style="" class="basic label-container"/><g transform="translate(-151.30078125, -18.5)" style="" class="label"><rect/><foreignObject height="37" width="302.6015625"><div style="display: inline-block; white-space: nowrap;" xmlns="http://www.w3.org/1999/xhtml"><span class="nodeLabel">Find Optimal Direction: <br />Record angle with max measured distance</span></div></foreignObject></g></g><g transform="translate(708.849609375, 1210.09375)" data-id="TurnTarget" data-node="true" id="flowchart-TurnTarget-27" class="node default action flowchart-label"><rect height="33.5" width="369.625" y="-16.75" x="-184.8125" ry="0" rx="0" style="" class="basic label-container"/><g transform="translate(-177.3125, -9.25)" style="" class="label"><rect/><foreignObject height="18.5" width="354.625"><div style="display: inline-block; white-space: nowrap;" xmlns="http://www.w3.org/1999/xhtml"><span class="nodeLabel">Calculate turn angle &amp; execute rotateRelativePID</span></div></foreignObject></g></g><g transform="translate(933.349609375, 1312.09375)" data-id="ResetStatus" data-node="true" id="flowchart-ResetStatus-31" class="node default action flowchart-label"><rect height="52" width="219.3359375" y="-26" x="-109.66796875" ry="0" rx="0" style="" class="basic label-container"/><g transform="translate(-102.16796875, -18.5)" style="" class="label"><rect/><foreignObject height="37" width="204.3359375"><div style="display: inline-block; white-space: nowrap;" xmlns="http://www.w3.org/1999/xhtml"><span class="nodeLabel">Center radar at 90°, <br />reset ranging &amp; speed states</span></div></foreignObject></g></g></g></g></g></svg>